<?xml version="1.0" standalone="no"?>
<!DOCTYPE svg PUBLIC "-//W3C//DTD SVG 20010904//EN"
 "http://www.w3.org/TR/2001/REC-SVG-20010904/DTD/svg10.dtd">
<svg version="1.0" xmlns="http://www.w3.org/2000/svg"
 width="260.000000pt" height="260.000000pt" viewBox="0 0 260.000000 260.000000"
 preserveAspectRatio="xMidYMid meet">
<metadata>
Created by potrace 1.11, written by Peter Selinger 2001-2013
</metadata>
<g transform="translate(0.000000,260.000000) scale(0.100000,-0.100000)"
fill="#000000" stroke="none">
<path d="M1060 2343 c0 -5 11 -9 25 -9 14 -1 22 2 19 7 -6 11 -44 12 -44 2z"/>
<path d="M1167 2301 c-9 -16 -18 -45 -19 -65 -4 -44 -21 -42 -29 5 l-6 34 -1
-35 c-1 -33 24 -139 43 -185 8 -20 8 -20 -13 -1 -22 19 -68 139 -64 166 3 13
2 13 -8 0 -9 -13 -13 -12 -29 8 -23 26 -34 28 -56 6 -18 -19 -26 -8 78 -115
56 -59 107 -139 107 -170 0 -18 -42 -5 -54 16 -29 55 -59 94 -89 115 -24 18
-19 10 21 -34 28 -32 52 -61 52 -65 0 -4 -29 -26 -65 -50 -130 -85 -195 -213
-194 -381 0 -52 6 -124 13 -160 26 -122 59 -245 63 -234 2 7 -10 67 -28 135
-27 106 -32 142 -32 244 0 132 10 172 65 258 17 27 54 67 82 90 l51 40 3 -31
c3 -25 -4 -39 -34 -68 -20 -21 -51 -67 -68 -103 -26 -56 -32 -80 -34 -157 -3
-82 0 -102 29 -190 30 -91 33 -110 33 -227 1 -92 -2 -130 -12 -136 -18 -11 -4
-65 24 -92 29 -27 85 -38 202 -39 l92 0 0 -129 0 -130 -54 6 c-45 5 -61 2 -89
-16 -61 -37 -80 -130 -37 -176 22 -23 22 -24 5 -77 -10 -29 -24 -65 -32 -80
l-14 -28 57 0 57 0 -7 83 c-8 95 6 174 35 212 42 53 57 18 23 -55 -27 -58 -29
-85 -13 -177 l11 -63 168 0 169 0 -16 56 c-16 55 -16 55 9 80 13 14 31 22 39
19 20 -8 55 -73 63 -117 l7 -38 56 0 56 0 -7 43 c-4 23 -21 72 -37 108 -25 54
-29 71 -20 87 6 11 11 43 11 70 0 59 -24 95 -75 112 -30 10 -41 9 -78 -9 -43
-21 -131 -29 -141 -13 -2 4 -8 62 -12 129 l-7 121 59 12 c125 26 292 84 413
143 l44 22 -7 90 c-10 145 -45 396 -77 564 -17 86 -33 169 -36 184 -9 46 -70
102 -133 122 -88 27 -205 30 -335 10 l-115 -18 0 -32 c0 -29 -15 -55 -32 -55
-4 0 -12 17 -18 38 -10 38 5 126 30 171 6 12 5 22 -1 28 -7 7 -4 29 10 69 14
42 16 62 9 71 -17 21 -43 15 -61 -16z m-34 -388 c-7 -2 -19 -2 -25 0 -7 3 -2
5 12 5 14 0 19 -2 13 -5z m46 -1316 c-2 -1 -15 -11 -29 -22 l-25 -20 19 23
c11 12 24 22 29 22 6 0 8 -1 6 -3z m-58 -93 l-9 -39 -1 36 c-1 20 2 39 6 42
12 13 13 0 4 -39z"/>
<path d="M1343 2292 c20 -22 22 -52 4 -52 -14 0 -49 -34 -61 -60 -4 -8 1 -5
11 6 10 12 30 29 46 39 29 18 36 52 15 73 -19 19 -33 14 -15 -6z"/>
<path d="M1292 2292 c-16 -11 -62 -73 -62 -85 0 -6 13 8 30 31 16 22 37 45 47
51 10 6 14 10 8 11 -5 0 -16 -4 -23 -8z"/>
<path d="M1054 2269 c-3 -6 -1 -16 5 -22 8 -8 11 -5 11 11 0 24 -5 28 -16 11z"/>
<path d="M892 2155 c4 -5 27 -17 50 -27 24 -11 39 -15 33 -9 -5 5 -28 17 -50
27 -22 9 -37 13 -33 9z"/>
<path d="M920 1130 c0 -8 5 -22 10 -30 9 -13 10 -13 10 0 0 8 -5 22 -10 30 -9
13 -10 13 -10 0z"/>
<path d="M941 1070 c0 -8 4 -24 9 -35 l9 -20 0 20 c0 11 -4 27 -9 35 -9 13
-10 13 -9 0z"/>
</g>
</svg>
